<svg width="17" height="16" viewBox="0 0 17 16" fill="none" xmlns="http://www.w3.org/2000/svg">
<path d="M15.6768 12.6552L13.2002 10.1784C12.7069 9.6871 11.89 9.70203 11.3796 10.2127L10.1319 11.4601C10.053 11.4167 9.97145 11.3713 9.88567 11.3231C9.09776 10.8866 8.01937 10.2882 6.8846 9.15259C5.74646 8.01458 5.14753 6.93454 4.70963 6.14613C4.66342 6.0626 4.61915 5.98207 4.57542 5.90559L5.41281 5.06945L5.8245 4.65725C6.33575 4.14586 6.34985 3.32921 5.85772 2.83648L3.38117 0.359373C2.88904 -0.132666 2.07179 -0.117739 1.56053 0.39365L0.862558 1.09563L0.881632 1.11457C0.647591 1.4132 0.452019 1.75763 0.306481 2.12905C0.172322 2.4826 0.0887949 2.81998 0.050602 3.15805C-0.27641 5.86906 0.96244 8.34671 4.32452 11.7088C8.97194 16.3559 12.7171 16.0049 12.8787 15.9877C13.2306 15.9457 13.5678 15.8616 13.9106 15.7285C14.2788 15.5847 14.623 15.3894 14.9214 15.1558L14.9367 15.1694L15.6438 14.477C16.154 13.9657 16.1687 13.1487 15.6768 12.6552Z" fill="white"/>
</svg>
