<svg width="181" height="113" viewBox="0 0 181 113" fill="none" xmlns="http://www.w3.org/2000/svg">
<rect x="22" width="136" height="38" rx="19" fill="#F3F8FA"/>
<path d="M0 56.5C0 46.2827 8.28273 38 18.5 38H162.5C172.717 38 181 46.2827 181 56.5C181 66.7173 172.717 75 162.5 75H18.5C8.28273 75 0 66.7173 0 56.5Z" fill="#F3F8FA"/>
<rect x="9" y="75" width="162" height="38" rx="19" fill="#F3F8FA"/>
<path d="M128.346 45.3969H126.351C125.703 43.3682 124.885 41.3975 123.905 39.5041L125.318 38.0908C128.745 34.6677 128.653 29.1819 125.319 25.8515L121.15 21.6821C117.821 18.3493 112.334 18.2527 108.91 21.6808L107.496 23.0952C105.603 22.1155 103.632 21.2974 101.603 20.6492V18.6533C101.603 13.8819 97.7212 10 92.9496 10H87.0502C82.2788 10 78.3969 13.8819 78.3969 18.6533V20.6492C76.3683 21.2973 74.3975 22.1154 72.5041 23.0952L71.0909 21.6821C67.6737 18.2608 62.187 18.341 58.8519 21.681L54.6819 25.8506C51.3493 29.1795 51.2529 34.6656 54.6808 38.0898L56.0952 39.5042C55.1154 41.3977 54.2974 43.3682 53.6492 45.3971H51.6535C46.8821 45.3969 43 49.2788 43 54.0502V59.9498C43 64.7212 46.8821 68.6031 51.6535 68.6031H53.6492C54.2974 70.6318 55.1154 72.6025 56.0952 74.4959L54.6819 75.9092C51.2551 79.3323 51.3469 84.8181 54.6808 88.1485L58.8504 92.3179C62.1788 95.6507 67.6656 95.7473 71.0897 92.3192L72.5041 90.9048C74.3975 91.8845 76.3683 92.7026 78.3969 93.3508V95.3467C78.3969 100.118 82.279 104 87.0504 104H92.9498C97.7212 104 101.603 100.118 101.603 95.3467V93.3508C103.632 92.7027 105.603 91.8847 107.496 90.9048L108.909 92.3179C112.326 95.7392 117.813 95.659 121.148 92.319L125.318 88.1493C128.651 84.8203 128.747 79.3342 125.319 75.91L123.905 74.4956C124.885 72.6022 125.703 70.6317 126.351 68.6028H128.347C133.118 68.6028 137 64.7209 137 59.9494V54.0498C137 49.2788 133.118 45.3969 128.346 45.3969ZM90 77.4523C78.7224 77.4523 69.5477 68.2774 69.5477 57C69.5477 45.7226 78.7224 36.5477 90 36.5477C101.278 36.5477 110.452 45.7226 110.452 57C110.452 68.2774 101.278 77.4523 90 77.4523Z" fill="#99DCDB"/>
<path d="M128.346 45.3969H126.351C125.703 43.3682 124.885 41.3975 123.905 39.5041L125.318 38.0908C128.745 34.6677 128.653 29.1819 125.319 25.8515L121.15 21.6821C117.821 18.3493 112.334 18.2527 108.91 21.6808L107.496 23.0952C105.603 22.1155 103.632 21.2974 101.603 20.6492V18.6533C101.603 13.8819 97.7212 10 92.9496 10H90V36.5477C101.278 36.5477 110.452 45.7226 110.452 57C110.452 68.2774 101.278 77.4523 90 77.4523V104H92.9496C97.721 104 101.603 100.118 101.603 95.3467V93.3508C103.632 92.7027 105.603 91.8847 107.496 90.9048L108.909 92.3179C112.326 95.7392 117.813 95.659 121.148 92.319L125.318 88.1493C128.651 84.8203 128.747 79.3342 125.319 75.91L123.905 74.4956C124.885 72.6022 125.703 70.6317 126.351 68.6028H128.346C133.118 68.6028 137 64.7209 137 59.9494V54.0498C137 49.2788 133.118 45.3969 128.346 45.3969Z" fill="#56B9B8"/>
</svg>
