<svg width="181" height="113" viewBox="0 0 181 113" fill="none" xmlns="http://www.w3.org/2000/svg">
<rect x="22" width="136" height="38" rx="19" fill="#F3F8FA"/>
<path d="M0 56.5C0 46.2827 8.28273 38 18.5 38H162.5C172.717 38 181 46.2827 181 56.5C181 66.7173 172.717 75 162.5 75H18.5C8.28273 75 0 66.7173 0 56.5Z" fill="#F3F8FA"/>
<rect x="9" y="75" width="162" height="38" rx="19" fill="#F3F8FA"/>
<path d="M43 56.9998C43 82.9158 64.0839 104 89.9998 104C115.916 104 137 82.9158 137 56.9998C137 31.0845 115.915 10 89.9998 10C64.0842 10 43 31.0845 43 56.9998ZM89.9998 75.181C79.9749 75.181 71.819 67.0251 71.819 56.9998C71.819 46.9749 79.9749 38.819 89.9998 38.819C100.025 38.819 108.181 46.9749 108.181 56.9998C108.18 67.0251 100.025 75.181 89.9998 75.181ZM76.5757 35.7703L65.8666 25.0612C71.7141 20.632 78.8098 17.7703 86.5248 17.1036V32.1146C82.9058 32.6177 79.5334 33.8936 76.5757 35.7703ZM63.5454 87.0402L74.1224 76.4635C78.454 80.0034 83.9825 82.1317 89.9998 82.1317C95.1768 82.1317 99.992 80.5568 103.995 77.8633L114.663 88.532C107.86 93.8648 99.2946 97.0486 89.9995 97.0486C79.869 97.0493 70.606 93.2658 63.5454 87.0402Z" fill="#F7B8C2"/>
<path d="M90 10V38.8C100 38.8 108.2 47 108.2 57C108.2 67 100 75.2 90 75.2V82.2C95.2 82.2 100 80.6 104 77.9L114.7 88.6C107.9 93.9 99.3 97 90 97V104C115.9 104 137 82.9 137 57C137 31.1 115.9 10 90 10Z" fill="#F87488"/>
</svg>
