<svg width="181" height="113" viewBox="0 0 181 113" fill="none" xmlns="http://www.w3.org/2000/svg">
<rect x="22" width="136" height="38" rx="19" fill="#F3F8FA"/>
<path d="M0 56.5C0 46.2827 8.28273 38 18.5 38H162.5C172.717 38 181 46.2827 181 56.5C181 66.7173 172.717 75 162.5 75H18.5C8.28273 75 0 66.7173 0 56.5Z" fill="#F3F8FA"/>
<rect x="9" y="75" width="162" height="38" rx="19" fill="#F3F8FA"/>
<path d="M109.119 104H70.3506C64.6433 104 60 99.3567 60 93.6494V20.3506C60 14.6433 64.6433 10 70.3506 10H109.119C114.827 10 119.47 14.6433 119.47 20.3506V93.6494C119.47 99.3567 114.827 104 109.119 104Z" fill="#ECD7F9"/>
<path d="M109.12 10H89.7354V104H109.12C114.827 104 119.47 99.3567 119.47 93.6494V20.3506C119.47 14.6433 114.827 10 109.12 10V10Z" fill="#B887F8"/>
<path d="M109.119 10H70.3506C64.6433 10 60 14.6433 60 20.3506V27.4414H119.47V20.3506C119.47 14.6433 114.827 10 109.119 10Z" fill="#5D18A2"/>
<path d="M109.12 10H89.7354V27.4414H119.47V20.3506C119.47 14.6433 114.827 10 109.12 10Z" fill="#8B54D4"/>
<path d="M60 93.6494C60 99.3567 64.6433 104 70.3506 104H109.119C114.827 104 119.47 99.3567 119.47 93.6494V79.2148H60V93.6494Z" fill="#5D18A2"/>
<path d="M89.7354 79.2148V104H109.12C114.827 104 119.47 99.3567 119.47 93.6494V79.2148H89.7354Z" fill="#8B54D4"/>
<path d="M92.1364 92.9844H87.334C85.8131 92.9844 84.5801 91.7514 84.5801 90.2305C84.5801 88.7096 85.8131 87.4766 87.334 87.4766H92.1364C93.6573 87.4766 94.8903 88.7096 94.8903 90.2305C94.8903 91.7514 93.6573 92.9844 92.1364 92.9844Z" fill="#8B44D2"/>
<path d="M92.1366 87.4766H89.7354V92.9844H92.1366C93.6575 92.9844 94.8905 91.7514 94.8905 90.2305C94.8905 88.7096 93.6575 87.4766 92.1366 87.4766Z" fill="#AC77F1"/>
</svg>
