<svg width="20" height="20" viewBox="0 0 20 20" fill="none" xmlns="http://www.w3.org/2000/svg">
<path d="M11.7688 9.99979L19.6335 2.13504C20.1222 1.64683 20.1222 0.854683 19.6335 0.366471C19.1449 -0.122157 18.3536 -0.122157 17.865 0.366471L10.0002 8.23122L2.13504 0.366471C1.64641 -0.122157 0.8551 -0.122157 0.366471 0.366471C-0.122157 0.854683 -0.122157 1.64683 0.366471 2.13504L8.23164 9.99979L0.366471 17.8645C-0.122157 18.3528 -0.122157 19.1449 0.366471 19.6331C0.610786 19.877 0.930979 19.9992 1.25076 19.9992C1.57053 19.9992 1.89073 19.877 2.13504 19.6327L10.0002 11.7679L17.865 19.6327C18.1093 19.877 18.4295 19.9992 18.7492 19.9992C19.069 19.9992 19.3892 19.877 19.6335 19.6327C20.1222 19.1445 20.1222 18.3523 19.6335 17.8641L11.7688 9.99979Z" fill="black"/>
</svg>
