<svg width="42" height="42" viewBox="0 0 42 42" fill="none" xmlns="http://www.w3.org/2000/svg">
<circle cx="21" cy="21" r="20.5" transform="rotate(90 21 21)" stroke="#FC6336"/>
<path d="M17.0925 27.4707L17.0926 27.4707L17.0925 27.4707ZM17.0925 27.4707L17.09 27.4733M17.0925 27.4707L17.09 27.4733M17.09 27.4733C16.7048 27.8702 16.7011 28.5122 17.0924 28.9011C17.4908 29.2977 18.137 29.3019 18.5278 28.8999L25.7491 21.7109C26.1513 21.3226 26.1516 20.6776 25.7491 20.2898L18.5277 13.1M17.09 27.4733L18.5277 13.1M18.5277 13.1C18.1363 12.6982 17.491 12.7022 17.0924 13.0989C16.7026 13.487 16.7024 14.1301 17.0926 14.5177C17.0926 14.5177 17.0926 14.5177 17.0926 14.5177L22.9322 20.3312L18.5277 13.1Z" fill="#FC6336" stroke="#FC6336" stroke-width="0.4"/>
</svg>
