<svg width="14" height="13" viewBox="0 0 14 13" fill="none" xmlns="http://www.w3.org/2000/svg">
<path d="M12.7373 10.2824L10.7251 8.26995C10.3243 7.87077 9.66059 7.8829 9.24584 8.2978L8.23208 9.31133C8.16804 9.27603 8.10174 9.23916 8.03204 9.20004C7.39187 8.84533 6.51568 8.35916 5.59368 7.43648C4.66894 6.51185 4.18231 5.63432 3.82651 4.99373C3.78897 4.92586 3.753 4.86043 3.71747 4.79829L4.39785 4.11893L4.73235 3.78402C5.14774 3.36851 5.15919 2.70498 4.75934 2.30464L2.74714 0.291991C2.34728 -0.107791 1.68326 -0.0956627 1.26787 0.319841L0.700768 0.890203L0.716265 0.905588C0.526106 1.14823 0.367204 1.42807 0.248954 1.72986C0.13995 2.01712 0.0720849 2.29124 0.0410531 2.56592C-0.224644 4.76861 0.781922 6.7817 3.51361 9.51343C7.28964 13.2892 10.3326 13.004 10.4639 12.99C10.7498 12.9559 11.0238 12.8875 11.3023 12.7794C11.6014 12.6625 11.8811 12.5039 12.1236 12.3141L12.136 12.3251L12.7105 11.7625C13.125 11.3471 13.137 10.6834 12.7373 10.2824Z" fill="black"/>
</svg>
