<svg width="42" height="42" viewBox="0 0 42 42" fill="none" xmlns="http://www.w3.org/2000/svg">
<path d="M24.9075 27.4707L24.9074 27.4707L24.9075 27.4707ZM24.9075 27.4707L24.91 27.4733M24.9075 27.4707L24.91 27.4733M24.91 27.4733C25.2952 27.8702 25.2989 28.5122 24.9076 28.9011C24.5092 29.2977 23.863 29.3019 23.4722 28.8999L16.2509 21.7109C15.8487 21.3226 15.8484 20.6776 16.2509 20.2898L23.4723 13.1M24.91 27.4733L23.4723 13.1M23.4723 13.1C23.8637 12.6982 24.509 12.7022 24.9076 13.0989C25.2974 13.487 25.2976 14.1301 24.9074 14.5177C24.9074 14.5177 24.9074 14.5177 24.9074 14.5177L19.0678 20.3312L23.4723 13.1Z" fill="black" stroke="#1E1E1E" stroke-width="0.4"/>
<circle r="20.5" transform="matrix(4.37114e-08 1 1 -4.37114e-08 21 21)" stroke="#1E1E1E"/>
</svg>
