<svg width="10" height="6" viewBox="0 0 10 6" fill="none" xmlns="http://www.w3.org/2000/svg">
<path d="M1.8356 0.975776L1.83557 0.9758L4.73653 3.89523L4.73672 3.89542L4.73815 3.89681L4.74543 3.90382C4.75199 3.91008 4.76178 3.91928 4.77403 3.93043C4.79874 3.95293 4.83247 3.98241 4.86941 4.0114C4.90711 4.04099 4.94404 4.0668 4.97552 4.08429C4.98622 4.09023 4.99432 4.09409 5.00001 4.09657C5.00572 4.09409 5.01385 4.09022 5.0246 4.08425C5.05612 4.06676 5.09311 4.04094 5.13086 4.01134C5.16784 3.98234 5.20162 3.95285 5.22637 3.93035C5.23864 3.91919 5.24844 3.90999 5.25501 3.90373L5.26231 3.89672L5.26375 3.89531L8.17017 0.975833C8.17021 0.975799 8.17024 0.975764 8.17028 0.97573L8.17034 0.975668L8.31208 1.11677L1.8356 0.975776ZM1.8356 0.975776L1.833 0.973253M1.8356 0.975776L1.833 0.973253M1.833 0.973253C1.59644 0.743662 1.21267 0.739975 0.978412 0.975833C0.742394 1.21309 0.738219 1.59961 0.97976 1.83503L4.5732 5.4446C4.80646 5.6856 5.19336 5.68587 5.42652 5.44453L9.02033 1.83494L1.833 0.973253ZM4.73625 3.89496C4.73624 3.89495 4.73624 3.89495 4.73626 3.89497L4.73625 3.89496Z" fill="red" stroke="red
    " stroke-width="0.4"/>
</svg>
